<svg width="56" height="32" viewBox="0 0 56 32" fill="none" xmlns="http://www.w3.org/2000/svg">
<g clip-path="url(#clip0)">
<path d="M51.9 32H3.5C1.5 32 0 30.4 0 28.5V3.5C0 1.6 1.6 0 3.5 0H51.9C53.9 0 55.4 1.6 55.4 3.5V28.5C55.4 30.4 53.9 32 51.9 32ZM3.5 0.8C2 0.8 0.8 2 0.8 3.5V28.5C0.8 30 2 31.2 3.5 31.2H51.9C53.4 31.2 54.6 30 54.6 28.5V3.5C54.6 2 53.4 0.8 51.9 0.8H3.5Z" fill="#AF7269"/>
<path d="M48.5 11.9H32.1C31.9 11.9 31.7 11.7 31.7 11.5C31.7 11.3 31.9 11.1 32.1 11.1H48.5C48.7 11.1 48.9 11.3 48.9 11.5C48.9 11.7 48.7 11.9 48.5 11.9Z" fill="#AF7269"/>
<path d="M48.5 15.5H32.1C31.9 15.5 31.7 15.3 31.7 15.1C31.7 14.9 31.9 14.7 32.1 14.7H48.5C48.7 14.7 48.9 14.9 48.9 15.1C48.9 15.4 48.7 15.5 48.5 15.5Z" fill="#AF7269"/>
<path d="M48.5 8.20002H32.1C31.9 8.20002 31.7 8.00002 31.7 7.80002C31.7 7.60002 31.9 7.40002 32.1 7.40002H48.5C48.7 7.40002 48.9 7.60002 48.9 7.80002C48.9 8.00002 48.7 8.20002 48.5 8.20002Z" fill="#AF7269"/>
<path d="M48.5 19.2H32.1C31.9 19.2 31.7 19 31.7 18.8C31.7 18.6 31.9 18.4 32.1 18.4H48.5C48.7 18.4 48.9 18.6 48.9 18.8C48.9 19 48.7 19.2 48.5 19.2Z" fill="#AF7269"/>
<path d="M41.1 22.8H32.2C32 22.8 31.8 22.6 31.8 22.4C31.8 22.2 32 22 32.2 22H41.2C41.4 22 41.6 22.2 41.6 22.4C41.5 22.6 41.3 22.8 41.1 22.8Z" fill="#AF7269"/>
<path d="M16.5 26C13.8 26 11.3 25 9.59999 23L9.39999 22.7L9.69999 22.5C10.4 21.8 11.7 21.2 13.1 20.9C13.6 20.7 13.7 20.7 13.9 20.5C14.1 20.3 14.1 20.3 14.1 20.2C14.1 20.1 14.1 19.7 14.1 19C13.8 18.6 13.5 18.1 13.2 17.4C12.8 17.2 12.6 16.8 12.5 16.3C12.4 15.8 12.4 15.4 12.6 15.1C12.2 13 12.5 11.4 13.5 10.4C14.3 9.50001 15.4 9.20001 16.9 9.20001H17.1C18.3 9.20001 18.7 9.40001 19.1 9.90001C19.8 10 20.3 10.2 20.7 10.7C21.5 11.6 21.6 13.2 21.1 15.1C21.3 15.4 21.3 15.8 21.2 16.3C21.1 16.8 20.7 17.2 20.3 17.4C20.1 17.9 19.8 18.5 19.5 19V20.2C19.5 20.3 19.6 20.4 19.7 20.5L19.9 20.7C20 20.8 20.1 20.8 20.6 21C21.9 21.3 23.1 21.9 23.8 22.6L24.1 22.8L23.4 23C21.5 24.9 19.1 26 16.5 26ZM10.3 22.8C11.9 24.4 14.1 25.2 16.4 25.2C18.7 25.2 20.8 24.3 22.6 22.8C22 22.3 21 21.9 20 21.6C19.4 21.4 19.2 21.3 19.1 21.1L18.9 21C18.7 20.8 18.4 20.6 18.4 20.1V18.5L18.5 18.4C18.8 18.1 19 17.6 19.3 16.8L19.4 16.6L19.6 16.5C19.8 16.4 20.1 16.2 20.1 15.9C20.2 15.6 20.2 15.3 20 15.2L19.8 15L19.9 14.8C20.4 13.1 20.4 11.7 19.7 10.9C19.4 10.6 19 10.4 18.5 10.4H18.3L18.2 10.3C18.1 10.2 18 10.1 18 10.1C17.8 9.90001 17.7 9.70001 16.7 9.70001H16.5C15.3 9.70001 14.3 10 13.7 10.7C12.9 11.6 12.7 13 13.1 14.8V15L13 15.3C12.9 15.4 12.8 15.6 12.9 16C13 16.2 13.1 16.5 13.4 16.6L13.6 16.7L13.7 16.9C14 17.6 14.2 18.1 14.6 18.5L14.7 18.6V18.8C14.7 19 14.8 20 14.7 20.3C14.6 20.5 14.5 20.8 14.2 21.1C14 21.3 13.7 21.4 13.1 21.6C11.9 21.9 10.9 22.2 10.3 22.8Z" fill="#AF7269"/>
<path d="M16.5 26C11.1 26 6.7 21.6 6.7 16.2C6.7 10.8 11.1 6.40002 16.5 6.40002C21.9 6.40002 26.3 10.8 26.3 16.2C26.3 21.6 21.9 26 16.5 26ZM16.5 7.30002C11.6 7.30002 7.5 11.4 7.5 16.3C7.5 21.2 11.6 25.3 16.5 25.3C21.4 25.3 25.5 21.2 25.5 16.3C25.5 11.4 21.4 7.30002 16.5 7.30002Z" fill="#AF7269"/>
</g>
<defs>
<clipPath id="clip0">
<rect width="55.4" height="32" fill="white"/>
</clipPath>
</defs>
</svg>
