<svg width="21" height="21" viewBox="0 0 21 21" fill="none" xmlns="http://www.w3.org/2000/svg">
<path d="M14.6 20.5H6.4C3.1 20.5 0.5 17.8 0.5 14.6V6.4C0.5 3.1 3.2 0.5 6.4 0.5H14.6C17.9 0.5 20.5 3.2 20.5 6.4V14.6C20.5 17.8 17.8 20.5 14.6 20.5Z" stroke="#AF7269" stroke-miterlimit="10"/>
<path d="M10.5 6.40002C8.2 6.40002 6.4 8.20002 6.4 10.5C6.4 12.8 8.2 14.6 10.5 14.6C12.8 14.6 14.6 12.8 14.6 10.5C14.6 8.20002 12.8 6.40002 10.5 6.40002Z" stroke="#AF7269" stroke-miterlimit="10"/>
<path d="M15.2 5.80005C16.0284 5.80005 16.7 5.12848 16.7 4.30005C16.7 3.47162 16.0284 2.80005 15.2 2.80005C14.3716 2.80005 13.7 3.47162 13.7 4.30005C13.7 5.12848 14.3716 5.80005 15.2 5.80005Z" stroke="#AF7269" stroke-miterlimit="10"/>
</svg>
