<svg width="22" height="35" viewBox="0 0 22 35" fill="none" xmlns="http://www.w3.org/2000/svg">
<path d="M0.000118084 33.8628C0.431491 33.8628 0.862863 33.8628 1.29424 33.8628C1.94129 33.8628 2.58835 33.719 3.16352 33.3595C3.66678 32.7124 3.73868 31.8497 3.95437 30.9869C5.0328 26.8889 6.03933 22.719 7.04587 18.6209C7.98051 14.8105 8.91515 11.0719 9.84979 7.26145C10.3531 5.24838 10.8563 3.23531 11.3596 1.15034C11.2877 0.934653 11.1439 0.718967 11.0001 0.431386C10.1374 0.287595 9.27463 0.431386 8.48378 0.35949C8.55567 0.215699 8.55567 0.0719085 8.55567 0.0719085C8.98705 -0.0718823 20.4903 1.30758e-05 21.2812 0.143804C20.9936 0.287595 20.8498 0.35949 20.706 0.35949C20.2746 0.35949 19.8433 0.35949 19.4119 0.35949C18.4053 0.35949 17.974 0.647072 17.6145 1.7255C17.3988 2.44446 17.1831 3.16341 17.0393 3.88237C16.1047 7.76472 15.0982 11.5752 14.1635 15.4575C13.3008 19.0523 12.438 22.5752 11.5034 26.1699C10.8563 28.6863 10.2093 31.2026 9.56221 33.6471C9.49031 33.8628 9.49031 34.0065 9.49031 34.2941C6.25502 34.2941 3.09162 34.2941 -0.0717773 34.2941C0.000118084 34.1503 0.000118084 34.0065 0.000118084 33.8628Z" fill="#F8F5F0"/>
</svg>
