<svg width="188" height="66" viewBox="0 0 188 66" fill="none" xmlns="http://www.w3.org/2000/svg">
<g clip-path="url(#clip0)">
<path d="M0 47C0.6 47 1.2 47 1.8 47C2.7 47 3.6 46.8 4.4 46.3C5.1 45.4 5.2 44.2 5.5 43C7 37.3 8.4 31.5 9.8 25.8C11.1 20.5 12.4 15.3 13.7 10C14.4 7.2 15.1 4.4 15.8 1.6C15.7 1.3 15.5 0.999999 15.3 0.599999C14.1 0.399999 12.9 0.599999 11.8 0.499999C11.9 0.299999 11.9 0.0999991 11.9 0.0999991C12.5 -0.100001 28.5 -9.53674e-07 29.6 0.199999C29.2 0.399999 29 0.499999 28.8 0.499999C28.2 0.499999 27.6 0.499999 27 0.499999C25.6 0.499999 25 0.899999 24.6 2.4C24.3 3.4 24 4.4 23.8 5.4C22.5 10.7 21.1 16.1 19.8 21.4C18.6 26.4 17.4 31.3 16.1 36.3C15.2 39.8 14.3 43.2 13.4 46.7C13.3 47 13.3 47.2 13.3 47.6C8.8 47.6 4.4 47.6 0 47.6C0 47.4 0 47.2 0 47Z" fill="#F8F5F0"/>
<path d="M80.5 65.4C82.2 64.2 82.9 62.4 83.3 60.6C85 54 86.6 47.4 88.3 40.8C89.8 34.8 91.3 28.7 92.9 22.7C93.6 19.9 95.5 18.1 98.3 17.4C99.4 17.1 100.5 17.2 101.8 17C101.2 19.3 100.7 21.5 100.1 23.8C99 28.4 97.8 32.9 96.7 37.5C95.4 42.7 94.2 48 92.8 53.2C92.1 56 90.8 58.6 88.8 60.8C87.2 62.6 85.3 63.8 83.1 64.6C82.3 64.8 81.4 65.1 80.5 65.4Z" fill="#F8F5F0"/>
<path d="M163.8 18C165.8 18 167.5 18 169.3 18C169.4 18.2 169.4 18.3 169.5 18.4C167.6 18.4 165.8 18.4 163.8 18.4C162.6 22.9 161.5 27.5 160.4 32.2C159.3 36.8 158.1 41.3 157 45.8C157.1 46.2 157.3 46.6 157.4 47.1C157.9 47.3 158.3 47.5 158.8 47.7C157.2 48.5 155.5 48.5 153.7 48.4C151.8 48.3 150.3 46.6 150.2 44.7C150.1 43.2 150.5 41.7 150.8 40.3C152.1 34.9 153.5 29.5 154.8 24.1C155.2 22.4 155.7 20.8 156.1 19.2C156.2 19 156.1 18.8 156.1 18.4C154.6 18.2 153.1 18.4 151.5 18.1C151.9 18.1 152.4 18.1 152.8 18C153.7 17.9 154.7 17.8 155.6 17.6C157.5 17.1 158.9 15.8 160 14.2C161.3 12.3 162.1 10.2 162.7 8C162.9 7.5 163 7 163.1 6.3C164.3 6.1 165.5 6.3 166.8 6.2C165.7 10.2 164.8 14 163.8 18Z" fill="#F8F5F0"/>
<path d="M134.4 47.5C135 47 135.5 46.6 136 46.1C137 45.1 137.4 43.9 137.5 42.6C137.5 41.5 137.1 40.6 136.4 39.8C135.2 38.4 133.6 37.5 132.1 36.5C130.3 35.4 128.5 34.2 126.8 33C125.3 31.9 124.2 30.5 123.9 28.7C123.5 26.5 123.9 24.3 125.1 22.3C126.2 20.6 127.8 19.4 129.6 18.5C130.8 17.9 132.1 17.6 133.4 17.2C133.6 17.1 133.8 17.2 134 17.2C133.1 17.7 132.3 18.1 131.5 18.6C130.7 19.1 130.1 19.9 129.7 20.8C129.2 21.7 129.1 22.7 129.2 23.7C129.5 24.9 130.3 25.8 131.4 26.4C133.2 27.5 135.1 28.5 136.9 29.6C138.7 30.6 140.5 31.8 141.9 33.4C143 34.7 143.7 36.1 143.7 37.8C143.7 38.8 143.7 39.8 143.5 40.8C143 42.9 141.7 44.4 139.9 45.6C138.4 46.6 136.7 47.3 134.9 47.7C134.8 47.6 134.7 47.5 134.4 47.5Z" fill="#F8F5F0"/>
<path d="M110 18.8C108.7 18.2 107.4 18.5 106.2 18.4C106.2 18.3 106.1 18.3 106.1 18.2L106.2 18.1C110.1 18.1 114 18.1 118.1 18.1C117.9 19.1 117.7 20.1 117.4 21C116.2 25.7 115.1 30.3 113.9 35C113 38.4 112.2 41.9 111.4 45.3C111.3 45.7 111.3 46.2 111.2 46.5C111.7 47.3 112.2 47.7 113.2 47.6C111.4 48.6 109.5 48.5 107.7 48.4C106.9 48.4 106.2 48.1 105.6 47.6C104.5 46.8 104.2 45.5 104.3 44.2C104.4 42.1 105.1 40.1 105.6 38C106.7 33.4 107.9 28.9 109 24.3C109.3 23 109.6 21.8 110 20.5C110.2 20 110.3 19.4 110 18.8Z" fill="#F8F5F0"/>
<path d="M177.9 46.5C178.4 47.4 178.9 47.7 179.9 47.6C177.7 48.6 175.7 48.7 173.7 48.2C171.6 47.7 170.9 46.3 171 44.2C171.1 42.5 171.6 40.8 172 39.2C173 35 174.1 30.9 175.1 26.7C175.6 24.7 176.1 22.7 176.6 20.7C176.8 20.1 176.8 19.6 176.7 19C175.5 18.2 174.1 18.6 172.5 18.4C173.8 18.1 180.4 18 184.6 18.2C184.6 18.5 184.5 18.8 184.5 19.1C183.7 22.2 183 25.4 182.2 28.5C181.1 33.1 179.9 37.6 178.8 42.2C178.5 43.3 178.2 44.5 177.9 45.6C177.9 45.8 177.9 46.2 177.9 46.5Z" fill="#F8F5F0"/>
<path d="M42.8 48.1C41.1 47.5 39.6 46.9 38.4 45.5C36.6 43.4 35.9 40.9 35.8 38.3C35.6 34.6 36.4 31.1 38 27.8C40.4 23.1 44.2 19.7 49.2 17.9C49.3 17.9 49.5 17.8 49.6 17.8C49.7 17.8 49.8 17.8 50 17.9C48.6 19.3 48.3 21.1 47.8 22.9C47.2 25.3 46.6 27.8 46 30.2C44.7 35.4 43.4 40.6 42.1 45.8C41.9 46.7 42.2 47.4 42.8 48.1Z" fill="#F8F5F0"/>
<path d="M87.3 17C84.9 17.2 83.1 18.6 81.7 20.5C79.9 23 78.7 25.8 77.8 28.8C77.1 31 76.8 33.3 76.3 35.5C76.1 36.5 76 37.6 76 38.6C75.9 40 75.7 41.5 75.8 42.9C75.8 44.1 76.1 45.2 76.4 46.3C76.7 47.3 77.4 48 78.7 48.3C76.6 48.5 75 48 73.5 47C70.9 45.4 69.3 43.1 68.9 40C68.6 38.4 68.7 36.8 68.9 35.2C69.1 33.8 69.4 32.5 69.7 31.1C70.4 28.4 71.7 26.1 73.3 23.9C75.4 21.1 78.1 19.1 81.4 18C82.5 17.6 83.7 17.3 84.9 17.2C85.7 17.2 86.5 17.1 87.3 17Z" fill="#F8F5F0"/>
<path d="M48.5 35C49.8 34.5 51 34.1 52.2 33.3C53.7 32.3 54.9 30.9 55.8 29.3C57.4 26.3 58 23.1 57.7 19.8C57.6 18.9 57.4 18 56.6 17.3C58.5 17.5 60.1 17.9 61.6 18.9C62.9 19.7 63.8 20.8 64.4 22.1C64.9 23.4 65.3 24.7 64.9 26.2C64.7 27 64.7 27.8 64.4 28.6C63.4 31 61.5 32.4 59.1 33.4C57.6 34 56 34.3 54.4 34.6C53.2 34.8 52.1 34.8 50.9 34.9C50.1 34.8 49.3 34.9 48.5 35Z" fill="#F8F5F0"/>
<path d="M66 60.6C65.9 60 65.8 59.5 65.7 59C65.6 56.2 66.9 53.2 70.5 53.1C71.7 53.1 72.9 53.1 74.3 53.1C73.7 55.6 73.1 58 72.5 60.5C72.2 61.8 71.6 63.2 71.9 64.7C72 64.9 72.2 65.1 72.4 65.4C70.9 65.2 69.6 64.5 68.4 63.8C67.2 62.9 66.5 61.7 66 60.6Z" fill="#F8F5F0"/>
<path d="M182 13.1C180.4 12.7 179.6 12 179.3 10.8C179 9.7 179 8.6 179.4 7.6C180.1 5.8 181.4 4.5 183.3 4C183.9 3.8 184.5 3.9 185 3.8C185.3 3.9 185.6 4 185.8 4.1C187.5 4.9 188.3 6.7 187.8 8.5C187.2 10.8 185.7 12.2 183.4 12.9C182.9 13.1 182.3 13.1 182 13.1Z" fill="#F8F5F0"/>
<path d="M118.3 3.8C119.9 4.3 120.9 5.1 121.1 6.5C121.2 7.1 121.3 7.8 121.2 8.4C120.6 10.8 119 12.4 116.6 13.1C116.5 13.1 116.3 13.2 116.2 13.2C115.8 13.2 115.5 13.2 115.2 13.2C114 12.8 113.1 12.2 112.8 11C112.5 9.9 112.5 8.8 112.9 7.8C113.6 6 114.8 4.6 116.8 4.1C117.3 3.9 117.9 3.9 118.3 3.8Z" fill="#F8F5F0"/>
<path d="M19.6 47.5C21.6 47 22.9 45.6 23.6 43.8C24.3 42.1 24.9 40.3 25.5 38.5C25.8 37.5 26.1 36.5 26.4 35.6C27.8 35.6 29.2 35.6 30.6 35.6C29.6 39.6 28.6 43.6 27.6 47.6C24.8 47.5 22.2 47.5 19.6 47.5Z" fill="#F8F5F0"/>
<path d="M55 36.7C57.1 37.9 59.1 39 61.2 40.2C60.7 41.5 60.1 42.7 59.2 43.7C57.3 45.8 54.9 46.8 52.3 47.5C51.4 47.7 50.5 47.9 49.5 48C50.4 47.2 51.3 46.5 51.9 45.5C53 44 53.6 42.2 54 40.4C54.3 39.4 54.4 38.4 54.6 37.4C54.8 37.2 54.9 37 55 36.7Z" fill="#F8F5F0"/>
<path d="M125.3 47.8C123.1 47.7 121.3 46.9 119.9 45.2C119.2 44.3 119.1 42 119.7 41.1C120.4 40 121.9 39.6 123.2 40.1C124.4 40.5 125 42 124.7 43.1C124.6 43.7 124.4 44.2 124.3 44.8C124.2 45.9 124.5 46.9 125.3 47.8Z" fill="#F8F5F0"/>
<path d="M142.8 24.3C141.7 23.6 141.3 22.5 141.3 21.3C141.3 20.4 141.4 19.5 141.1 18.6C140.9 18.2 140.8 17.8 140.6 17.3C142.5 17.5 144.3 17.9 145.8 19.4C146.7 20.3 146.7 22.3 146.2 23.3C145.9 23.8 145.5 24.1 145 24.3C144.7 24.4 144.4 24.5 144.1 24.6C143.6 24.4 143.2 24.3 142.8 24.3Z" fill="#F8F5F0"/>
</g>
<defs>
<clipPath id="clip0">
<rect width="188" height="65.4" fill="white"/>
</clipPath>
</defs>
</svg>
