<svg xmlns="http://www.w3.org/2000/svg" viewBox="0 0 18 28.13"><defs><style>.cls-1{fill:#af7269;}</style></defs><title>Asset 2</title><g id="Layer_2" data-name="Layer 2"><g id="Слой_1" data-name="Слой 1"><path class="cls-1" d="M0,27.8c.35,0,.7,0,1,0a2.52,2.52,0,0,0,1.54-.42,4.8,4.8,0,0,0,.63-1.92c.87-3.39,1.71-6.78,2.55-10.17C6.55,12.18,7.31,9.07,8.08,6c.41-1.65.82-3.29,1.25-5L9,.37C8.32.27,7.64.36,6.94.3,7,.16,7,.07,7,.06,7.38,0,16.79,0,17.46.1a1.85,1.85,0,0,1-.48.2c-.35,0-.7,0-1,0a1.28,1.28,0,0,0-1.44,1.1c-.18.58-.33,1.17-.48,1.76q-1.19,4.74-2.37,9.49c-.73,2.93-1.43,5.87-2.16,8.8-.51,2.05-1.05,4.1-1.57,6.15a4.58,4.58,0,0,0-.07.51H0Z"/><path class="cls-1" d="M11.54,28.09a3.3,3.3,0,0,0,2.37-2.19c.41-1,.74-2.09,1.1-3.15.19-.57.35-1.16.52-1.73H18l-1.76,7.07Z"/></g></g></svg>