<svg width="20" height="20" viewBox="0 0 20 20" fill="none" xmlns="http://www.w3.org/2000/svg">
<path d="M20 10C20 4.5 15.5 0 10 0C4.5 0 0 4.5 0 10C0 12.9 1.2 15.4 3.2 17.3L3.5 17.5C3.5 17.5 3.6 17.6 3.7 17.6C3.8 17.7 3.9 17.7 4 17.8C4 18 4.1 18.1 4.3 18.2C4.4 18.3 4.5 18.3 4.6 18.4C4.8 18.5 4.9 18.6 5.1 18.7C5.2 18.8 5.3 18.8 5.4 18.9C5.6 19 5.7 19 5.9 19.1C6 19.2 6.2 19.2 6.3 19.3C6.5 19.4 6.6 19.4 6.8 19.5C6.9 19.5 7.1 19.6 7.2 19.6C7.4 19.6 7.5 19.7 7.7 19.7C7.8 19.7 8 19.8 8.1 19.8C8.3 19.8 8.5 19.9 8.7 19.9C8.8 19.9 8.9 19.9 9.1 20C9.4 20 9.7 20 10.1 20C10.4 20 10.7 20 11.1 20C11.2 20 11.3 20 11.5 19.9C11.7 19.9 11.9 19.8 12.1 19.8C12.2 19.8 12.4 19.7 12.5 19.7C12.7 19.7 12.8 19.6 13 19.6C13.1 19.6 13.3 19.5 13.4 19.5C13.6 19.4 13.7 19.4 13.9 19.3C14 19.2 14.2 19.2 14.3 19.1C14.5 19 14.6 19 14.8 18.9C14.9 18.8 15 18.8 15.2 18.7C15.4 18.6 15.5 18.5 15.7 18.4C15.8 18.3 15.9 18.3 16 18.2C16.2 18.1 16.3 18 16.4 17.9C16.5 17.8 16.6 17.7 16.7 17.7L16.8 17.6L17.1 17.4C18.8 15.4 20 12.9 20 10ZM0.7 10C0.7 4.9 4.9 0.7 10 0.7C15.1 0.7 19.3 4.9 19.3 10C19.3 12.7 18.2 15.1 16.4 16.8C15.7 16.2 14.7 15.6 13.5 15.3C13 15 12.9 15 12.7 14.9L12.6 14.8C12.4 14.6 12.3 14.5 12.2 14.2V12.8C12.6 12.4 12.8 11.8 13.1 11C13.4 10.9 13.7 10.5 13.8 10C13.9 9.5 13.9 9.1 13.7 8.9C14.2 6.9 14.1 5.2 13.5 4.3C13.1 3.8 12.6 3.6 12 3.6C11.9 3.6 11.9 3.5 11.9 3.4C11.7 3.1 11.4 2.8 10.3 2.8H10.2C8.9 2.8 7.8 3.2 7.2 4C6.2 4.9 6 6.5 6.3 8.7C6.2 9 6.1 9.4 6.2 9.8C6.3 10.2 6.6 10.6 6.9 10.8C7.2 11.7 7.5 12.2 7.9 12.6C7.9 13.2 7.9 14 7.9 14.1C7.9 14.3 7.8 14.5 7.6 14.7C7.4 14.9 7.2 15 6.7 15.2C5.4 15.5 4.4 16.1 3.8 16.7C1.8 15.1 0.7 12.7 0.7 10ZM15.2 17.7C14.9 17.9 14.7 18 14.5 18.1C14.4 18.1 14.3 18.2 14.2 18.2C14 18.3 13.9 18.4 13.7 18.4C13.6 18.5 13.5 18.5 13.4 18.5C13.3 18.6 13.1 18.6 13 18.7C12.9 18.7 12.7 18.8 12.6 18.8C12.4 18.8 12.3 18.9 12.1 18.9C12 18.9 11.8 19 11.7 19C11.5 19 11.3 19.1 11.2 19.1C11.1 19.1 11 19.1 10.9 19.1C10.6 19.1 10.3 19.1 10 19.1C9.7 19.1 9.4 19.1 9.1 19.1C9 19.1 8.9 19.1 8.8 19.1C8.6 19.1 8.4 19.1 8.3 19C8.2 19 8 18.9 7.9 18.9C7.7 18.9 7.6 18.8 7.4 18.8C7.3 18.8 7.1 18.7 7 18.7C6.8 18.6 6.7 18.6 6.5 18.5C6.4 18.5 6.3 18.4 6.2 18.4C6 18.3 5.9 18.2 5.7 18.2C5.6 18.2 5.5 18.1 5.4 18.1C5.3 18 5 17.9 4.8 17.7C4.6 17.5 4.3 17.4 4.1 17.2C4.7 16.7 5.6 16.2 6.7 15.9C7.3 15.7 7.6 15.5 7.9 15.2C8.2 14.9 8.4 14.6 8.4 14.3C8.5 14 8.4 12.9 8.4 12.5V12.4L8.3 12.3C8 12 7.7 11.4 7.4 10.5V10.3H7.1C7 10.3 6.9 10.1 6.8 9.8C6.8 9.6 6.8 9.4 6.8 9.3H7L7.1 8.8C6.7 6.7 6.9 5.2 7.6 4.3C8.1 3.7 9 3.3 10.1 3.3H10.2C11.1 3.3 11.1 3.4 11.3 3.6C11.4 3.7 11.5 3.9 11.7 4L11.8 4.1H12C12.4 4.1 12.7 4.2 12.9 4.5C13.5 5.2 13.5 6.9 12.9 8.7L12.8 9L13.1 9.1C13.1 9.2 13.1 9.4 13.1 9.6C13.1 9.8 12.9 10 12.9 10L12.6 9.8L12.5 10.3C12.3 11.1 12 11.8 11.6 12.2L11.5 12.3V14C11.6 14.6 11.8 14.9 12.1 15.1L12.3 15.3C12.5 15.5 12.7 15.6 13.3 15.8C14.4 16.1 15.3 16.6 15.9 17.1C15.7 17.4 15.4 17.6 15.2 17.7Z" fill="#332925"/>
</svg>
